<?xml version="1.0" encoding="UTF-8"?>
<svg version="1.1" xmlns="http://www.w3.org/2000/svg" width="1024" height="1024">
<path d="M0 0 C2.19140625 -0.08984375 2.19140625 -0.08984375 5.69140625 0.16015625 C12.30316137 10.07778892 10.04754932 27.28036352 10.00390625 38.78515625 C10.00208344 39.77815735 10.00026062 40.77115845 9.99838257 41.79425049 C9.88482887 78.59526623 4.99169898 115.74626838 -11.30859375 149.16015625 C-11.62054688 149.8032373 -11.9325 150.44631836 -12.25390625 151.10888672 C-21.63927929 170.18961718 -35.37687145 186.32481837 -52.30859375 199.16015625 C-53.09314941 199.75642822 -53.09314941 199.75642822 -53.89355469 200.36474609 C-72.01133968 213.88507513 -92.91883274 221.61329761 -114.18164062 228.60678101 C-127.71150101 233.06729006 -140.13059364 238.22664862 -152.1484375 245.99609375 C-152.86128906 246.38023437 -153.57414062 246.764375 -154.30859375 247.16015625 C-154.96859375 246.83015625 -155.62859375 246.50015625 -156.30859375 246.16015625 C-150.39730561 224.40524116 -138.09212875 205.46726841 -125.30859375 187.16015625 C-124.12728105 185.45204633 -122.94629035 183.74371368 -121.765625 182.03515625 C-114.61654984 171.72896077 -107.29960993 161.54518797 -99.93066406 151.39550781 C-97.15540443 147.57096278 -94.38811392 143.74066472 -91.62109375 139.91015625 C-91.07702881 139.15718262 -90.53296387 138.40420898 -89.97241211 137.62841797 C-86.33366238 132.58913236 -82.71373032 127.53683305 -79.10766602 122.47412109 C-76.3220749 118.56727524 -73.51290392 114.67811992 -70.69580078 110.79394531 C-57.90227262 93.14322618 -45.54677572 75.19918472 -33.30859375 57.16015625 C-35.63652839 57.16015625 -38.16158358 59.99312238 -39.99609375 61.41015625 C-40.57625244 61.85762207 -41.15641113 62.30508789 -41.75415039 62.76611328 C-47.863615 67.52420201 -53.71448097 72.56467729 -59.55566406 77.64550781 C-61.26177783 79.11970416 -62.98116877 80.57634454 -64.70703125 82.02734375 C-77.87035954 93.1171265 -90.24155168 105.0179891 -102.43359375 117.16015625 C-103.21500732 117.93689697 -103.9964209 118.7136377 -104.80151367 119.51391602 C-108.95142864 123.67546167 -112.93284177 127.92390507 -116.76708984 132.37792969 C-118.80602729 134.73526947 -120.93316484 137.00581697 -123.05859375 139.28515625 C-128.39355277 145.13090921 -133.23109994 151.30676751 -138.06396484 157.56884766 C-139.74652876 159.72007394 -141.50027882 161.81011801 -143.24609375 163.91015625 C-156.80400973 180.89905505 -167.69482047 200.2430771 -176.30859375 220.16015625 C-182.88024518 219.41648207 -187.36237736 211.99643256 -191.30859375 207.16015625 C-211.38929421 181.38145758 -228.50115458 152.46805985 -241.55859375 122.53515625 C-242.15136108 121.19275879 -242.15136108 121.19275879 -242.75610352 119.82324219 C-243.10858154 118.9934082 -243.46105957 118.16357422 -243.82421875 117.30859375 C-244.13649414 116.57817871 -244.44876953 115.84776367 -244.77050781 115.09521484 C-245.30859375 113.16015625 -245.30859375 113.16015625 -244.30859375 110.16015625 C-239.51506601 110.70091751 -235.97430328 112.92391825 -231.99609375 115.47265625 C-231.29822754 115.91561035 -230.60036133 116.35856445 -229.88134766 116.81494141 C-219.39071545 123.5758846 -209.51145621 131.15488028 -199.99609375 139.22265625 C-199.48224121 139.65626465 -198.96838867 140.08987305 -198.43896484 140.53662109 C-192.77263586 145.43843126 -187.5709616 150.83388018 -182.30859375 156.16015625 C-182.32954102 155.25475098 -182.35048828 154.3493457 -182.37207031 153.41650391 C-183.06141499 119.08452141 -183.06141499 119.08452141 -178.30859375 105.16015625 C-178.08896973 104.50466797 -177.8693457 103.84917969 -177.64306641 103.17382812 C-165.26799281 67.33603537 -135.23502421 43.33700629 -102.25 27.140625 C-71.28537562 12.45588647 -34.24589593 2.37577281 0 0 Z " fill="#0082FD" transform="translate(385.30859375,360.83984375)"/>
<path d="M0 0 C3.19208572 1.92855179 5.52293807 4.03518814 8 6.8125 C8.33 4.8325 8.66 2.8525 9 0.8125 C14.28 0.8125 19.56 0.8125 25 0.8125 C25.06801368 9.89703444 25.12295256 18.98139734 25.15543652 28.06612968 C25.17103406 32.2853943 25.19216302 36.50447437 25.22631836 40.72363281 C25.25912437 44.8020418 25.27689737 48.88027424 25.28463173 52.95880508 C25.29013739 54.50799459 25.30088773 56.0571754 25.31719017 57.60628891 C25.43028258 68.80710331 25.12788176 78.99971789 17.734375 88.05859375 C10.84043881 95.03016436 2.69515042 97.04171996 -6.83081055 97.19189453 C-7.77351807 97.19044434 -8.71622559 97.18899414 -9.6875 97.1875 C-10.66050049 97.18733887 -11.63350098 97.18717773 -12.63598633 97.18701172 C-21.33441233 97.04913728 -28.63625947 95.72166035 -36 90.8125 C-35.54554036 89.39458592 -35.08625056 87.97821954 -34.625 86.5625 C-34.24214844 85.37914062 -34.24214844 85.37914062 -33.8515625 84.171875 C-33.04826333 81.94622042 -32.10288338 79.90318328 -31 77.8125 C-27.86758465 78.3019399 -25.47570488 79.05081596 -22.5625 80.375 C-15.82164868 82.98146251 -7.39152888 83.19976033 -0.71484375 80.46875 C3.33403089 77.99864519 5.36224518 74.88520317 6.75 70.375 C7.06212101 67.17575968 7.06298145 64.02455397 7 60.8125 C6.23816406 61.53566406 6.23816406 61.53566406 5.4609375 62.2734375 C-0.84874908 68.06322481 -5.71062705 70.34188999 -14.34765625 70.12109375 C-21.71208948 69.26425984 -27.57001962 66.20186663 -32.53515625 60.734375 C-38.47650479 52.93932572 -40.39424182 44.1468846 -40.375 34.5 C-40.37338867 33.66057861 -40.37177734 32.82115723 -40.37011719 31.95629883 C-40.24358699 25.55721998 -39.26017349 20.40460314 -36 14.8125 C-35.4225 13.760625 -34.845 12.70875 -34.25 11.625 C-25.76881402 1.02351752 -13.61339307 -5.22443813 0 0 Z " fill="#0084FB" transform="translate(868,476.1875)"/>
<path d="M0 0 C8.47455839 6.07742873 13.86944017 14.23250268 15.59765625 24.55859375 C16.57612403 36.36815622 15.1423001 47.10814143 7.59765625 56.55859375 C0.67482963 64.11498262 -6.73997534 67.58411446 -16.91894531 68.13134766 C-27.15185553 68.35803946 -34.85681781 66.36288603 -42.76953125 59.5078125 C-47.61995773 54.50636541 -50.37604283 49.18700185 -52.40234375 42.55859375 C-52.593125 41.94757812 -52.78390625 41.3365625 -52.98046875 40.70703125 C-55.07914347 30.01933593 -53.50299801 19.71292671 -48.1171875 10.31640625 C-44.51070179 4.99206802 -39.98981794 1.6456492 -34.40234375 -1.44140625 C-33.78746094 -1.78300781 -33.17257812 -2.12460937 -32.5390625 -2.4765625 C-22.63416813 -7.03663164 -9.19903218 -5.51941931 0 0 Z " fill="#0084FB" transform="translate(804.40234375,479.44140625)"/>
<path d="M0 0 C7.28941428 5.17473778 10.45415229 11.56687947 13 20 C13 25.94 13 31.88 13 38 C-1.52 38 -16.04 38 -31 38 C-28.32498906 46.92244515 -28.32498906 46.92244515 -22 52 C-13.88717587 54.70427471 -5.51782349 53.4535731 2.07421875 49.875 C4 49 4 49 6 49 C7.5078125 51.1171875 7.5078125 51.1171875 9.125 53.875 C9.66382813 54.77992188 10.20265625 55.68484375 10.7578125 56.6171875 C12 59 12 59 12 61 C10.46101439 61.79686606 8.91866216 62.58723141 7.375 63.375 C6.08722656 64.03628906 6.08722656 64.03628906 4.7734375 64.7109375 C-5.11121167 69.30521106 -17.3281051 70.05025342 -27.80078125 66.83203125 C-32.97319336 64.32634219 -37.32285712 61.48151789 -41 57 C-41.680625 56.278125 -42.36125 55.55625 -43.0625 54.8125 C-49.12571051 46.01106539 -51.22895266 35.63408731 -49.5390625 25.13671875 C-47.21791317 14.39116275 -42.1142771 6.282341 -33 0 C-22.49793226 -5.996113 -10.58957296 -5.73466105 0 0 Z " fill="#0084FB" transform="translate(636,479)"/>
<path d="M0 0 C6.27 0 12.54 0 19 0 C19 26.07 19 52.14 19 79 C32.2 79 45.4 79 59 79 C59 84.28 59 89.56 59 95 C39.53 95 20.06 95 0 95 C0 63.65 0 32.3 0 0 Z " fill="#007FF5" transform="translate(687,451)"/>
<path d="M0 0 C5.94 0 11.88 0 18 0 C18 25.74 18 51.48 18 78 C31.2 78 44.4 78 58 78 C58 83.28 58 88.56 58 94 C38.86 94 19.72 94 0 94 C0 62.98 0 31.96 0 0 Z " fill="#0084FC" transform="translate(442,452)"/>
<path d="M0 0 C1.83304688 0.00966797 1.83304688 0.00966797 3.703125 0.01953125 C6.75 0.1875 6.75 0.1875 8.75 1.1875 C8.75 6.1375 8.75 11.0875 8.75 16.1875 C4.59960938 16.04101562 4.59960938 16.04101562 0.44921875 15.89453125 C-2.21899446 15.98722673 -2.21899446 15.98722673 -4.0625 17.3125 C-5.75080817 19.97824974 -5.76924311 22.2454218 -5.9375 25.375 C-6.040625 27.293125 -6.14375 29.21125 -6.25 31.1875 C-1.3 31.1875 3.65 31.1875 8.75 31.1875 C8.75 35.8075 8.75 40.4275 8.75 45.1875 C3.8 45.1875 -1.15 45.1875 -6.25 45.1875 C-6.25 63.3375 -6.25 81.4875 -6.25 100.1875 C-12.19 100.1875 -18.13 100.1875 -24.25 100.1875 C-24.25 82.0375 -24.25 63.8875 -24.25 45.1875 C-27.55 45.1875 -30.85 45.1875 -34.25 45.1875 C-34.25 40.5675 -34.25 35.9475 -34.25 31.1875 C-30.62 31.1875 -26.99 31.1875 -23.25 31.1875 C-23.30220703 29.45113281 -23.30220703 29.45113281 -23.35546875 27.6796875 C-23.38362207 26.1406396 -23.41092056 24.60157589 -23.4375 23.0625 C-23.46263672 22.30195313 -23.48777344 21.54140625 -23.51367188 20.7578125 C-23.58884197 14.94465875 -22.60603425 10.85729183 -18.63671875 6.359375 C-18.07597656 5.89015625 -17.51523437 5.4209375 -16.9375 4.9375 C-16.38449219 4.45796875 -15.83148437 3.9784375 -15.26171875 3.484375 C-10.38314623 0.33935349 -5.69941603 -0.06669529 0 0 Z " fill="#0082F9" transform="translate(575.25,445.8125)"/>
<path d="M0 0 C5.94 0 11.88 0 18 0 C18 22.77 18 45.54 18 69 C12.06 69 6.12 69 0 69 C0 46.23 0 23.46 0 0 Z " fill="#0083F9" transform="translate(512,477)"/>
<path d="M0 0 C5.46986291 2.48630132 7.44437245 5.79409203 10 11 C12.2936469 17.88094071 12.09251836 26.43672152 9.25 33.125 C7.0737756 37.24073666 4.8284201 40.01166481 0.6875 42.25 C-3.93075681 43.53881585 -7.60550388 43.5020186 -12.125 41.875 C-17.09654153 38.63269031 -20.19030668 34.62041318 -22 29 C-22.99479695 19.83739649 -22.69226092 11.61491288 -17 4 C-12.1117144 -0.8882856 -6.56052154 -0.94839134 0 0 Z " fill="#0a0a0a" transform="translate(791,490)"/>
<path d="M0 0 C4.61491838 4.19538034 6.4244506 8.50787182 7.09765625 14.6953125 C7.31257156 22.74996448 6.36962292 28.6128176 1.8125 35.375 C-1.5063105 38.79438052 -4.38996085 39.81211734 -9.125 39.9375 C-12.64360414 39.85976942 -14.88795014 39.55710528 -17.6875 37.375 C-23.20078566 31.18936243 -24.58562844 24.96807698 -24.46484375 16.90234375 C-23.83563914 9.86669222 -21.27524251 4.40559388 -16.25 -0.5 C-10.91490618 -3.81640967 -5.3759352 -2.48120086 0 0 Z " fill="#0a0a0a" transform="translate(869.25,491.5)"/>
<path d="M0 0 C3.9386187 2.30372037 6.00345169 4.54690318 7.3125 8.9375 C7.3125 11.2475 7.3125 13.5575 7.3125 15.9375 C-2.2575 15.9375 -11.8275 15.9375 -21.6875 15.9375 C-19.18568182 4.67931818 -19.18568182 4.67931818 -13.375 0.125 C-8.62507947 -1.97380209 -4.90259859 -1.41261315 0 0 Z " fill="#011226" transform="translate(625.6875,489.0625)"/>
<path d="M0 0 C4.10627098 0.87168208 5.57628722 2.14282321 8.2265625 5.47265625 C9.07773226 8.67467581 9.08330664 11.27144333 8.2265625 14.47265625 C5.64154392 17.63930401 4.16659294 19.04910185 0.22265625 19.91015625 C-3.46914653 20.13432644 -5.60563525 19.57976407 -8.7109375 17.59765625 C-11.54837602 14.67423474 -11.73795522 13.83339276 -12.1484375 9.66015625 C-12.08134861 6.31181061 -11.75282497 5.44074007 -9.8359375 2.47265625 C-6.27681997 0.1483346 -4.18017873 -0.27262035 0 0 Z " fill="#0086FA" transform="translate(522.7734375,447.52734375)"/>
</svg>
